<?xml version="1.0" ?><svg viewBox="0 0 24 24" xmlns="http://www.w3.org/2000/svg"><defs><style>.cls-1{fill:none;}.cls-2{fill:#007824;}.cls-3{fill:#00b538;}.cls-4{fill:#00db42;}.cls-5{fill:#fff;}</style></defs><title/><g data-name="Layer 2" id="Layer_2"><g data-name="Layer 3" id="Layer_3"><rect class="cls-1" height="24" width="24"/><path class="cls-2" d="M1,12C1,4,4,1,12,1S23,4,23,12,20,23,12,23,1,20,1,12"/><path class="cls-3" d="M19.9,16.27,18.82,9.84h0c-6.76-.48-12.54-1-12.54,1.08h0a3.85,3.85,0,0,0,3.86,3.84h4.44l2.79,2.8A1.49,1.49,0,0,0,19.9,16.27Z"/><path class="cls-4" d="M15,6H9A3.85,3.85,0,0,0,5.18,9.84h0L4.1,16.27a1.49,1.49,0,0,0,2.53,1.29l3.86-3.88H15A3.84,3.84,0,0,0,18.8,9.84h0A3.84,3.84,0,0,0,15,6Z"/><circle class="cls-5" cx="13.75" cy="9.84" r="0.6"/><circle class="cls-5" cx="16.16" cy="9.84" r="0.6"/><circle class="cls-5" cx="14.95" cy="8.64" r="0.6"/><circle class="cls-5" cx="14.95" cy="11.04" r="0.6"/><path class="cls-5" d="M10.73,9.36H9.64a.12.12,0,0,1-.12-.12V8.16A.12.12,0,0,0,9.4,8H8.68a.12.12,0,0,0-.12.12V9.24a.12.12,0,0,1-.12.12H7.35a.12.12,0,0,0-.12.12v.72a.12.12,0,0,0,.12.12H8.44a.12.12,0,0,1,.12.12v1.08a.12.12,0,0,0,.12.12H9.4a.12.12,0,0,0,.12-.12V10.44a.12.12,0,0,1,.12-.12h1.09a.12.12,0,0,0,.12-.12V9.48A.12.12,0,0,0,10.73,9.36Z"/></g></g></svg>